<svg xmlns="http://www.w3.org/2000/svg" viewBox="0 0 80 140">
  <!-- Wall -->
  <rect x="8" y="54" width="64" height="84" rx="4" fill="#edf5ff" stroke="#406ec5" stroke-width="2"/>
  <!-- Roof -->
  <polygon points="4,60 40,18 76,60" fill="#79a8f8" stroke="#406ec5" stroke-width="2.5"/>
  <!-- Badge on roof -->
  <circle cx="40" cy="36" r="10" fill="#406ec5" stroke="#2a4e9a" stroke-width="1.5"/>
  <polygon points="40,28 42.4,34.6 49.5,34.6 43.8,38.8 46.2,45.4 40,41.2 33.8,45.4 36.2,38.8 30.5,34.6 37.6,34.6" fill="#f8d060" transform="scale(0.6) translate(26.7,18)"/>
  <!-- Windows -->
  <rect x="12" y="70" width="20" height="16" rx="3" fill="#c8d8f8" stroke="#406ec5" stroke-width="1.5"/>
  <rect x="48" y="70" width="20" height="16" rx="3" fill="#c8d8f8" stroke="#406ec5" stroke-width="1.5"/>
  <!-- Sign -->
  <rect x="14" y="92" width="52" height="12" rx="3" fill="#406ec5" stroke="#2a4e9a" stroke-width="1"/>
  <text x="40" y="102" text-anchor="middle" font-family="sans-serif" font-size="8" fill="white" font-weight="bold">경찰서</text>
  <!-- Door -->
  <rect x="28" y="106" width="24" height="32" rx="4" fill="#6898e8" stroke="#406ec5" stroke-width="1.5"/>
  <rect x="33" y="110" width="14" height="12" rx="2" fill="#c8d8f8" stroke="#406ec5" stroke-width="1"/>
  <circle cx="36" cy="124" r="2.5" fill="#c8a060"/>
</svg>
