<svg xmlns="http://www.w3.org/2000/svg" viewBox="0 0 80 140">
  <!-- Wall -->
  <rect x="8" y="56" width="64" height="82" rx="4" fill="#fff1e2" stroke="#8a6030" stroke-width="2"/>
  <!-- Flat roof parapet -->
  <rect x="4" y="48" width="72" height="12" rx="3" fill="#8b5f49" stroke="#6e4030" stroke-width="2"/>
  <!-- Awning -->
  <path d="M 6 70 Q 40 60 74 70 L 74 76 Q 40 66 6 76 Z" fill="#c83838" stroke="#8a2020" stroke-width="1.5"/>
  <line x1="19" y1="71" x2="19" y2="75" stroke="#ff9090" stroke-width="2.5" opacity="0.55"/>
  <line x1="32" y1="68" x2="32" y2="73" stroke="#ff9090" stroke-width="2.5" opacity="0.55"/>
  <line x1="48" y1="68" x2="48" y2="73" stroke="#ff9090" stroke-width="2.5" opacity="0.55"/>
  <line x1="61" y1="71" x2="61" y2="75" stroke="#ff9090" stroke-width="2.5" opacity="0.55"/>
  <!-- Sign -->
  <rect x="18" y="78" width="44" height="14" rx="3" fill="#5a3018" stroke="#3a1a08" stroke-width="1"/>
  <text x="40" y="89" text-anchor="middle" font-family="sans-serif" font-size="8" fill="#f8d090" font-weight="bold">CAFÉ</text>
  <!-- Windows -->
  <rect x="10" y="98" width="24" height="22" rx="3" fill="#c8e8f8" stroke="#8a6030" stroke-width="1.5"/>
  <rect x="46" y="98" width="24" height="22" rx="3" fill="#c8e8f8" stroke="#8a6030" stroke-width="1.5"/>
  <!-- Door -->
  <rect x="28" y="108" width="24" height="30" rx="3" fill="#c09070" stroke="#8a6030" stroke-width="1.5"/>
  <rect x="32" y="112" width="16" height="12" rx="2" fill="#c8e8f8" stroke="#8a6030" stroke-width="1"/>
  <circle cx="38" cy="125" r="2" fill="#c8a060"/>
</svg>
