<svg xmlns="http://www.w3.org/2000/svg" viewBox="0 0 140 170" role="img" aria-label="egg">
  <defs>
    <linearGradient id="shell" x1="24" x2="118" y1="24" y2="150" gradientUnits="userSpaceOnUse">
      <stop stop-color="#fff9e9"/>
      <stop offset=".55" stop-color="#f4deb9"/>
      <stop offset="1" stop-color="#dba96c"/>
    </linearGradient>
  </defs>
  <path fill="url(#shell)" d="M70 8c37 0 58 57 58 97 0 37-26 59-58 59s-58-22-58-59C12 65 33 8 70 8Z"/>
  <path fill="#ffffff" opacity=".48" d="M50 27c-20 21-27 59-21 81 2 9 11 6 10-2-5-26 6-55 23-72 6-6-6-13-12-7Z"/>
  <path fill="none" stroke="#c5845b" stroke-linecap="round" stroke-width="7" d="M33 99c12-9 20-9 32 0s21 9 33 0 19-9 30 0"/>
  <path fill="none" stroke="#edc792" stroke-linecap="round" stroke-width="5" d="M38 122c10 6 20 6 30 0s20-6 30 0 18 6 28 0"/>
</svg>
