<svg xmlns="http://www.w3.org/2000/svg" viewBox="0 0 140 170" role="img" aria-label="hatchling">
  <defs>
    <linearGradient id="fur" x1="34" x2="105" y1="33" y2="139" gradientUnits="userSpaceOnUse">
      <stop stop-color="#f5bf63"/>
      <stop offset="1" stop-color="#d9825a"/>
    </linearGradient>
  </defs>
  <path fill="#d9a96d" d="M33 111c-17 9-22 26-15 39 10-11 24-14 39-10l4-23c-9-9-18-11-28-6Z"/>
  <path fill="#d9a96d" d="M107 111c17 9 22 26 15 39-10-11-24-14-39-10l-4-23c9-9 18-11 28-6Z"/>
  <path fill="url(#fur)" d="M70 28c35 0 55 30 55 66 0 43-24 67-55 67S15 137 15 94c0-36 20-66 55-66Z"/>
  <path fill="#f8d89d" d="M44 42 28 17l31 14Zm52 0 16-25-31 14Z"/>
  <path fill="#fff0c8" d="M45 104c7 8 16 12 25 12s18-4 25-12c-2 28-48 28-50 0Z"/>
  <circle cx="49" cy="78" r="8" fill="#263029"/>
  <circle cx="91" cy="78" r="8" fill="#263029"/>
  <circle cx="52" cy="75" r="2.5" fill="#fff"/>
  <circle cx="94" cy="75" r="2.5" fill="#fff"/>
  <path fill="#7d4b3f" d="M70 91c7 0 10 4 10 8 0 5-5 10-10 10s-10-5-10-10c0-4 3-8 10-8Z"/>
  <path fill="#ffffff" opacity=".22" d="M39 58c-12 18-12 49 0 65 5 6 12 0 8-7-10-19-9-35 1-52 4-8-5-13-9-6Z"/>
</svg>
